<?xml version="1.0" encoding="UTF-8" standalone="no"?>
<svg
   version="1.1"
   viewBox="-10 0 879 1000"
   id="svg1"
   xmlns="http://www.w3.org/2000/svg"
   xmlns:svg="http://www.w3.org/2000/svg">
  <defs
     id="defs1" />
  <g
     transform="matrix(1,0,0,-1,0,800)"
     id="g1"
     style="fill:#000000;fill-opacity:1;stroke:none">
    <path
       fill="currentColor"
       d="m 817,260 c 9,0 42,-10 42,-19 v -500 c 0,-9 -33,-11 -42,-11 -9,0 -34,6 -34,15 v 150 H 65 v -150 c 0,-9 -23,-16 -32,-16 -9,0 -33,5 -33,14 v 500 c 0,9 24,18 33,18 9,0 32,-7 32,-16 V 95 h 718 v 150 c 0,9 25,15 34,15 z"
       id="path1"
       style="fill:#000000;fill-opacity:1;stroke:none" />
  </g>
</svg>
