<?xml version="1.0" encoding="UTF-8" standalone="no"?>
<svg
   version="1.1"
   viewBox="-10 0 267 1000"
   id="svg1"
   xmlns="http://www.w3.org/2000/svg"
   xmlns:svg="http://www.w3.org/2000/svg">
  <defs
     id="defs1" />
  <g
     transform="matrix(1,0,0,-1,0,800)"
     id="g1"
     style="fill:#000000;fill-opacity:1;stroke:none">
    <path
       fill="currentColor"
       d="M 81,39 C 36,39 0,70 0,107 c 0,37 30,67 67,67 37,0 67,-30 67,-67 V 97 c 33,0 83,60 90,66 6,4 9,4 11,4 2,-1 12,-6 12,-16 -1,-5 -6,-21 -10,-39 0,0 -98,-351 -101,-353 -10,-8 -24,-10 -35,-10 -6,0 -29,1 -29,13 24,88 94,267 94,291 0,5 -1,9 -5,9 -7,0 -41,-23 -80,-23 z"
       id="path1"
       style="fill:#000000;fill-opacity:1;stroke:none" />
  </g>
</svg>
