<?xml version="1.0" encoding="UTF-8" standalone="no"?>
<svg
   version="1.1"
   viewBox="-10 0 340 1000"
   id="svg1"
   xmlns="http://www.w3.org/2000/svg"
   xmlns:svg="http://www.w3.org/2000/svg">
  <defs
     id="defs1" />
  <g
     transform="matrix(1,0,0,-1,0,800)"
     id="g1"
     style="fill:#000000;fill-opacity:1;stroke:none">
    <path
       fill="currentColor"
       d="m 237,67 c -7,0 -39,-24 -85,-24 -38,0 -80,27 -80,68 0,38 31,68 68,68 38,0 68,-30 68,-68 v -10 c 34,1 84,61 91,67 3,2 6,4 11,4 2,-1 10,-5 10,-11 0,-1 -1,-2 -1,-4 -2,-13 -27,-101 -27,-101 0,0 -19,-67 -45,-152 L 131,-477 c -4,-11 -9,-23 -38,-23 -22,0 -31,10 -31,19 l 1,1 v 1 l 95,283 v 1 l 1,1 c 0,4 -2,6 -4,6 -23,-12 -49,-21 -75,-21 -38,0 -80,27 -80,68 0,38 30,68 68,68 37,0 68,-30 68,-68 0,-3 0,-6 -1,-10 14,0 41,12 49,31 7,15 58,164 58,180 0,5 -2,7 -5,7 z"
       id="path1"
       style="fill:#000000;fill-opacity:1;stroke:none" />
  </g>
</svg>
