<?xml version="1.0" encoding="UTF-8" standalone="no"?>
<svg
   version="1.1"
   viewBox="-10 0 443 1000"
   id="svg1"
   xmlns="http://www.w3.org/2000/svg"
   xmlns:svg="http://www.w3.org/2000/svg">
  <defs
     id="defs1" />
  <g
     transform="matrix(1,0,0,-1,0,800)"
     id="g1"
     style="fill:#000000;fill-opacity:1;stroke:none">
    <path
       fill="currentColor"
       d="m 341,317 c -8,0 -44,-24 -83,-24 -38,0 -82,27 -82,69 0,37 30,68 68,68 37,0 68,-31 68,-68 0,-4 0,-7 -1,-10 34,0 84,61 92,67 3,2 6,4 11,4 4,-1 9,-4 9,-15 -3,-13 -27,-102 -27,-102 L 303,-94 c -4,-18 -23,-99 -24,-99 -120,-516 -128,-534 -130,-543 -4,-11 -9,-17 -33,-17 -23,0 -32,5 -32,14 0,2 0,4 1,7 l 72,279 v 1 l 1,3 c 0,5 -1,13 -8,13 -1,0 -37,-17 -68,-17 -46,0 -82,34 -82,68 0,38 31,68 68,68 38,0 68,-30 68,-68 0,-3 0,-6 -1,-9 13,0 39,9 45,30 4,11 39,154 40,159 0,1 1,5 1,8 0,6 -1,14 -6,14 -6,0 -31,-23 -73,-23 -40,0 -83,29 -83,69 0,37 31,68 68,68 38,0 68,-31 68,-68 v -10 c 14,0 41,9 49,35 4,10 42,165 42,167 0,5 -2,9 -6,9 -5,0 -42,-22 -86,-22 -49,0 -81,35 -81,68 0,37 31,68 68,68 38,0 68,-31 68,-68 v -10 c 17,0 53,21 60,40 3,9 41,163 41,166 0,7 -4,11 -9,11 z"
       id="path1"
       style="fill:#000000;fill-opacity:1;stroke:none" />
  </g>
</svg>
