<?xml version="1.0" encoding="UTF-8" standalone="no"?>
<svg
   version="1.1"
   viewBox="-10 0 383 1000"
   id="svg1"
   xmlns="http://www.w3.org/2000/svg"
   xmlns:svg="http://www.w3.org/2000/svg">
  <defs
     id="defs1" />
  <g
     transform="matrix(1,0,0,-1,0,800)"
     id="g1"
     style="fill:#000000;fill-opacity:1;stroke:none">
    <path
       fill="currentColor"
       d="m 197,290 c -42,0 -82,31 -82,68 0,38 31,68 68,68 38,0 68,-30 68,-68 v -9 c 34,0 84,61 91,66 3,2 6,4 11,4 2,0 10,-2 10,-11 0,-1 -1,-2 -1,-4 -2,-12 -26,-101 -26,-101 0,0 -172,-770 -175,-782 -4,-11 -7,-21 -39,-21 -21,0 -27,8 -27,16 0,4 72,287 72,292 0,3 -3,6 -6,6 -3,0 -37,-23 -81,-23 -38,0 -80,27 -80,68 0,38 31,68 68,68 38,0 68,-30 68,-68 0,-3 0,-6 -1,-10 15,1 46,14 51,35 l 40,164 c 0,5 -2,13 -7,13 -4,0 -39,-23 -78,-23 -46,0 -82,34 -82,68 0,38 30,68 68,68 37,0 68,-30 68,-68 0,-3 0,-6 -1,-9 16,0 49,20 54,36 l 39,160 v 1 l 1,2 c 0,7 -4,17 -11,17 -6,0 -40,-23 -80,-23 z"
       id="path1"
       style="fill:#000000;fill-opacity:1;stroke:none" />
  </g>
</svg>
