<?xml version="1.0" encoding="UTF-8" standalone="no"?>
<svg
   version="1.1"
   viewBox="-10 0 290 1000"
   id="svg1"
   xmlns="http://www.w3.org/2000/svg"
   xmlns:svg="http://www.w3.org/2000/svg">
  <defs
     id="defs1" />
  <g
     transform="matrix(1,0,0,-1,0,800)"
     id="g1"
     style="fill:#000000;fill-opacity:1;stroke:none">
    <path
       fill="currentColor"
       d="m 115,-121 c 5,0 12,1 12,9 0,12 -48,73 -49,74 L 29,22 c 0,0 -10,10 -10,24 0,8 4,19 14,29 45,47 60,90 60,127 0,72 -57,123 -61,134 -3,6 -4,11 -4,16 0,14 10,21 20,21 6,0 13,-3 18,-8 17,-17 165,-193 165,-193 0,0 4,-9 4,-19 0,-26 -64,-82 -70,-162 v -3 l -1,-7 v -3 c 0,-56 31,-93 69,-139 11,-12 37,-45 37,-57 0,-3 -2,-4 -5,-4 -9,0 -48,19 -88,19 -42,0 -63,-32 -63,-73 0,-31 17,-62 30,-62 8,-7 16,-15 16,-24 0,-6 -3,-13 -17,-13 -8,0 -18,3 -26,9 -73,56 -116,105 -116,155 0,49 34,96 86,96 l 8,-3 h 4 c 4,-1 12,-3 16,-3 z"
       id="path1"
       style="fill:#000000;fill-opacity:1;stroke:none" />
  </g>
</svg>
